Coordinates
version=1
nRows=24
nColumns=19
inDegrees=yes

Units are S.I. units (second, meters, Newtons, ...)
If the header above contains a line with 'inDegrees', this indicates whether rotational values are in degrees (yes) or radians (no).

endheader
time	pelvis_to_ground_rx	pelvis_to_ground_ry	pelvis_to_ground_rz	pelvis_to_ground_tx	pelvis_to_ground_ty	pelvis_to_ground_tz	left_hip_abduction	left_hip_rotation	left_hip_flexion	left_knee_flexion	left_ankle_flexion	left_subtalar_angle	right_hip_abduction	right_hip_rotation	right_hip_flexion	right_knee_flexion	right_ankle_flexion	right_subtalar_angle
      1.74000000	     90.87701418	     -1.00017338	     -1.47668553	      0.07657643	     -0.67370061	      0.69572400	     -7.16601917	     -1.97133973	     38.00887398	    -39.54564344	      0.06755936	    -11.91318063	      6.61774096	      3.48263747	     -6.80384348	    -35.24258423	      2.66618905	     -1.98598121
      1.75000000	     91.85710221	     -1.11041606	     -1.46362621	      0.09054793	     -0.67234709	      0.69404140	     -8.11277152	     -2.78279781	     37.43248618	    -40.38437825	      0.65308528	    -12.77998966	      5.10011515	      1.66728294	     -6.23250394	    -37.81753114	      1.46090292	     -1.99287992
      1.76000000	     92.90406628	     -1.19452020	     -1.48407091	      0.10441267	     -0.67094754	      0.69266047	     -9.27617358	     -3.34868159	     36.87296131	    -41.40759808	      1.29444072	    -13.63089585	      3.48724214	     -0.22114088	     -5.45625725	    -40.52040537	      0.08447222	     -2.16873361
      1.77000000	     93.98765548	     -1.24304236	     -1.52812476	      0.11811794	     -0.66952145	      0.69162291	    -10.59226882	     -3.68470800	     36.28653150	    -42.48409976	      1.98022028	    -14.34507658	      1.84881707	     -2.13488829	     -4.49925438	    -43.30047610	     -1.33669702	     -2.46425605
      1.78000000	     95.06660951	     -1.25783939	     -1.69788898	      0.13157551	     -0.66810813	      0.69101394	    -11.95798521	     -3.86200039	     35.73713376	    -43.46453315	      2.57074675	    -14.95228594	      0.28377516	     -3.99340148	     -3.25844193	    -46.10384145	     -3.09448638	     -3.69246410
      1.79000000	     96.13052242	     -1.22796204	     -1.74956925	      0.14480710	     -0.66671360	      0.69077655	    -13.37340239	     -3.77882829	     34.97646995	    -44.29549332	      3.28160126	    -15.31898313	     -1.21974040	     -5.86592774	     -1.99783128	    -48.90762788	     -4.26865059	     -3.87130010
      1.80000000	     97.14274364	     -1.15733575	     -1.89993044	      0.15771336	     -0.66538513	      0.69102949	    -14.72623760	     -3.57932560	     34.19515295	    -44.86338851	      4.02292721	    -15.29122164	     -2.53689455	     -7.61102254	     -0.49917327	    -51.63048480	     -5.72875328	     -5.09940341
      1.81000000	     98.08985453	     -1.07268468	     -2.13608993	      0.17027041	     -0.66410932	      0.69178019	    -15.97478950	     -3.28037575	     33.37151722	    -45.10693387	      4.21809933	    -15.35724076	     -3.65429766	     -9.24981554	      1.24856026	    -54.28105104	     -6.01468041	     -5.20757617
      1.82000000	     98.90745647	     -0.88847303	     -2.36234323	      0.18251340	     -0.66298735	      0.69299135	    -17.03738875	     -2.96680454	     32.41828757	    -45.07092640	      5.19444850	    -15.22175016	     -4.49656035	    -10.82667689	      3.08232337	    -56.73005150	     -7.31939953	     -5.84569685
      1.83000000	     99.62244766	     -0.69118106	     -2.69468271	      0.19438654	     -0.66196074	      0.69467824	    -17.91731051	     -2.68220964	     31.44946369	    -44.70297940	      5.32698219	    -15.11710049	     -5.05579941	    -12.22392983	      5.16617580	    -59.01369036	     -7.44935163	     -6.06900689
      1.84000000	    100.19003191	     -0.45433749	     -3.01950978	      0.20597774	     -0.66109628	      0.69679800	    -18.59670219	     -2.31296524	     30.38867435	    -44.06911326	      6.08414055	    -14.10075110	     -5.31553467	    -13.44408723	      7.32467862	    -61.02481411	     -8.07840913	     -6.98417849
      1.85000000	    100.63622697	     -0.16102290	     -3.31821137	      0.21728412	     -0.66036223	      0.69926357	    -19.05372600	     -2.13049273	     29.17976976	    -43.16340990	      6.12869004	    -13.95745744	     -5.33399243	    -14.53280146	      9.53780353	    -62.78985650	     -8.01064489	     -7.09564201
      1.86000000	    100.93312783	      0.16341271	     -3.61419463	      0.22833617	     -0.65977407	      0.70202129	    -19.29164342	     -2.03895256	     27.90516581	    -42.07373588	      6.14782001	    -13.69233987	     -5.08739892	    -15.42482396	     11.80734639	    -64.26895426	     -7.83850929	     -7.22721976
      1.87000000	    101.10483655	      0.52178792	     -3.83037256	      0.23920029	     -0.65931529	      0.70500473	    -19.33118295	     -2.12804353	     26.46878188	    -40.80772874	      6.13882766	    -13.41427933	     -4.65858895	    -16.11587674	     14.01362665	    -65.44478109	     -7.62194674	     -7.35212750
      1.88000000	    101.13269318	      0.88250372	     -4.02470057	      0.24987107	     -0.65901474	      0.70812023	    -19.19097896	     -2.25160173	     25.01851303	    -39.48832198	      6.05319135	    -12.47318315	     -4.03004569	    -16.56317509	     16.21364520	    -66.33036089	     -6.85628150	     -7.51404105
      1.89000000	    101.04696201	      1.28155634	     -4.19890723	      0.26038716	     -0.65885669	      0.71130623	    -18.88106214	     -2.63964998	     23.51635956	    -38.11301534	      6.06144023	    -12.08373535	     -3.27686864	    -16.84077126	     18.37670260	    -66.92381560	     -6.49795666	     -7.60267383
      1.90000000	    100.87041060	      1.73972516	     -4.19059807	      0.27079774	     -0.65882161	      0.71444933	    -18.45240991	     -3.26321007	     21.80769798	    -36.72339528	      6.02164775	    -11.84314414	     -2.51302949	    -16.99221252	     20.29089759	    -67.23541205	     -6.24879347	     -7.72935767
      1.91000000	    100.57067963	      2.19257736	     -4.24909661	      0.28105811	     -0.65896326	      0.71752458	    -17.89595549	     -3.94652061	     20.25235483	    -35.43868470	      5.74603720	    -11.37759999	     -1.62588125	    -16.90757068	     22.23997602	    -67.28303896	     -5.50784848	     -8.10113076
      1.92000000	    100.25953177	      2.68397229	     -4.13499228	      0.29124441	     -0.65917635	      0.72040885	    -17.34065740	     -4.82200620	     18.52889248	    -34.19580530	      5.69126903	    -11.16030412	     -0.86852999	    -16.75493649	     23.94245087	    -67.10994108	     -5.26251830	     -8.26507068
      1.93000000	     99.89251320	      3.19324470	     -4.03368838	      0.30131350	     -0.65952477	      0.72308830	    -16.74879881	     -5.75943750	     16.90918245	    -33.09581619	      5.57586055	    -10.93277477	     -0.12836576	    -16.47118653	     25.59999954	    -66.71223701	     -4.92028187	     -8.52925812
      1.94000000	     99.51089923	      3.69940259	     -3.93242177	      0.31127239	     -0.65998118	      0.72549099	    -16.17167899	     -6.62442004	     15.40605108	    -32.16233881	      5.23926815	    -10.67202819	      0.52585817	    -16.05762327	     27.19795404	    -66.11388430	     -4.25661189	     -9.19368640
      1.95000000	     99.14300396	      4.25451237	     -3.70609644	      0.32116389	     -0.66050514	      0.72756524	    -15.65103647	     -7.51869590	     13.84380886	    -31.36562042	      5.17944811	    -10.51599145	      1.01325409	    -15.66635691	     28.59198131	    -65.32505500	     -4.09832437	     -9.40278745
      1.96000000	     98.79954243	      4.82460859	     -3.50240891	      0.33095778	     -0.66111071	      0.72930302	    -15.18139171	     -8.32296877	     12.41478574	    -30.73639059	      5.09159660	    -10.35870377	      1.36997000	    -15.23874195	     29.94599998	    -64.34662244	     -3.89726074	     -9.66910543
      1.97000000	     98.50299686	      5.41624866	     -3.29586433	      0.34067385	     -0.66177093	      0.73068190	    -14.78219455	     -9.00298653	     11.08133239	    -30.25527709	      4.99422967	    -10.20048863	      1.55871977	    -14.80977022	     31.21995158	    -63.17166473	     -3.70577186	     -9.95336419
